<svg width="105" height="105" viewBox="0 0 105 105" fill="none" xmlns="http://www.w3.org/2000/svg">
<g id="fad:logo-audiobus">
<path id="Vector" opacity="0.5" fill-rule="evenodd" clip-rule="evenodd" d="M14.7656 61.8212C14.7656 62.1096 15.1684 62.3438 15.6684 62.3438H18.7847C19.2835 62.3438 19.6875 62.112 19.6875 61.8212V46.46C19.6875 46.1717 19.2847 45.9375 18.7847 45.9375H15.6684C15.1696 45.9375 14.7656 46.1692 14.7656 46.46M22.9688 69.1306C22.9688 69.6864 23.3715 70.1367 23.8715 70.1367H26.9879C27.4866 70.1367 27.8906 69.6905 27.8906 69.1306V39.5608C27.8906 39.005 27.4879 38.5547 26.9879 38.5547H23.8715C23.3728 38.5547 22.9688 39.0009 22.9688 39.5608M30.7617 62.6415C30.7617 62.9299 31.1645 63.1641 31.6645 63.1641H34.7808C35.2796 63.1641 35.6836 62.9323 35.6836 62.6415V47.2804C35.6836 46.992 35.2808 46.7578 34.7808 46.7578H31.6645C31.1657 46.7578 30.7617 46.9896 30.7617 47.2804M38.5547 59.9009C38.5547 60.1174 38.9575 60.293 39.4574 60.293H42.5738C43.0726 60.293 43.4766 60.1191 43.4766 59.9009V48.3804C43.4766 48.1638 43.0738 47.9883 42.5738 47.9883H39.4574C38.9587 47.9883 38.5547 48.1622 38.5547 48.3804M46.7578 70.6535C46.7578 71.2741 47.1606 71.7773 47.6606 71.7773H50.7769C51.2757 71.7773 51.6797 71.2786 51.6797 70.6535V37.6277C51.6797 37.0072 51.2769 36.5039 50.7769 36.5039H47.6606C47.1618 36.5039 46.7578 37.0027 46.7578 37.6277M54.5508 81.4324C54.5508 82.4426 54.9536 83.2617 55.4535 83.2617H58.5699C59.0686 83.2617 59.4727 82.4496 59.4727 81.4324V27.6691C59.4727 26.6589 59.0699 25.8398 58.5699 25.8398H55.4535C54.9548 25.8398 54.5508 26.652 54.5508 27.6691M62.3438 75.262C62.3438 76.0557 62.7465 76.6992 63.2465 76.6992H66.3629C66.8616 76.6992 67.2656 76.0614 67.2656 75.262V33.0192C67.2656 32.2256 66.8629 31.582 66.3629 31.582H63.2465C62.7478 31.582 62.3438 32.2198 62.3438 33.0192M70.1367 69.9115C70.1367 70.489 70.5395 70.957 71.0395 70.957H74.1558C74.6546 70.957 75.0586 70.4936 75.0586 69.9115V39.1904C75.0586 38.6129 74.6558 38.1449 74.1558 38.1449H71.0395C70.5407 38.1449 70.1367 38.6084 70.1367 39.1904M77.9297 64.9064C77.9297 65.303 78.3325 65.625 78.8324 65.625H81.9488C82.4476 65.625 82.8516 65.3063 82.8516 64.9064V43.785C82.8516 43.3884 82.4488 43.0664 81.9488 43.0664H78.8324C78.3337 43.0664 77.9297 43.3851 77.9297 43.785M85.7227 73.7518C85.7227 74.4737 86.1254 75.0586 86.6254 75.0586H89.7418C90.2405 75.0586 90.6445 74.4786 90.6445 73.7518V35.3497C90.6445 34.6279 90.2418 34.043 89.7418 34.043H86.6254C86.1267 34.043 85.7227 34.6229 85.7227 35.3497" fill="#FDBF47"/>
</g>
</svg>
